<svg width="202" height="48" viewBox="0 0 202 48" fill="none" xmlns="http://www.w3.org/2000/svg">
<rect width="202" height="48" fill="url(#paint0_linear_11623_567)"/>
<path d="M17.592 19.504H20.544C20.912 19.504 21.252 19.548 21.564 19.636C21.884 19.724 22.156 19.856 22.38 20.032C22.612 20.2 22.792 20.42 22.92 20.692C23.056 20.956 23.124 21.268 23.124 21.628C23.124 22.116 22.988 22.516 22.716 22.828C22.444 23.132 22.092 23.356 21.66 23.5V23.524C21.916 23.54 22.156 23.608 22.38 23.728C22.604 23.84 22.796 23.992 22.956 24.184C23.124 24.368 23.256 24.584 23.352 24.832C23.448 25.08 23.496 25.348 23.496 25.636C23.496 26.02 23.416 26.36 23.256 26.656C23.104 26.944 22.892 27.188 22.62 27.388C22.348 27.588 22.032 27.74 21.672 27.844C21.312 27.948 20.924 28 20.508 28H17.592V19.504ZM18.744 23.032H20.316C20.532 23.032 20.736 23.012 20.928 22.972C21.12 22.924 21.288 22.848 21.432 22.744C21.576 22.64 21.688 22.508 21.768 22.348C21.856 22.188 21.9 21.992 21.9 21.76C21.9 21.424 21.792 21.132 21.576 20.884C21.36 20.636 21.02 20.512 20.556 20.512H18.744V23.032ZM18.744 26.992H20.436C20.612 26.992 20.804 26.976 21.012 26.944C21.228 26.904 21.428 26.832 21.612 26.728C21.796 26.616 21.952 26.468 22.08 26.284C22.208 26.1 22.272 25.856 22.272 25.552C22.272 25.048 22.108 24.672 21.78 24.424C21.452 24.168 21.008 24.04 20.448 24.04H18.744V26.992ZM30.2506 28.216C29.6026 28.216 29.0066 28.104 28.4626 27.88C27.9186 27.648 27.4506 27.332 27.0586 26.932C26.6746 26.532 26.3706 26.06 26.1466 25.516C25.9306 24.972 25.8226 24.384 25.8226 23.752C25.8226 23.12 25.9306 22.532 26.1466 21.988C26.3706 21.444 26.6746 20.972 27.0586 20.572C27.4506 20.172 27.9186 19.86 28.4626 19.636C29.0066 19.404 29.6026 19.288 30.2506 19.288C30.8986 19.288 31.4946 19.404 32.0386 19.636C32.5826 19.86 33.0466 20.172 33.4306 20.572C33.8226 20.972 34.1266 21.444 34.3426 21.988C34.5666 22.532 34.6786 23.12 34.6786 23.752C34.6786 24.384 34.5666 24.972 34.3426 25.516C34.1266 26.06 33.8226 26.532 33.4306 26.932C33.0466 27.332 32.5826 27.648 32.0386 27.88C31.4946 28.104 30.8986 28.216 30.2506 28.216ZM30.2506 27.136C30.7386 27.136 31.1786 27.048 31.5706 26.872C31.9626 26.688 32.2986 26.444 32.5786 26.14C32.8586 25.836 33.0746 25.48 33.2266 25.072C33.3786 24.656 33.4546 24.216 33.4546 23.752C33.4546 23.288 33.3786 22.852 33.2266 22.444C33.0746 22.028 32.8586 21.668 32.5786 21.364C32.2986 21.06 31.9626 20.82 31.5706 20.644C31.1786 20.46 30.7386 20.368 30.2506 20.368C29.7626 20.368 29.3226 20.46 28.9306 20.644C28.5386 20.82 28.2026 21.06 27.9226 21.364C27.6426 21.668 27.4266 22.028 27.2746 22.444C27.1226 22.852 27.0466 23.288 27.0466 23.752C27.0466 24.216 27.1226 24.656 27.2746 25.072C27.4266 25.48 27.6426 25.836 27.9226 26.14C28.2026 26.444 28.5386 26.688 28.9306 26.872C29.3226 27.048 29.7626 27.136 30.2506 27.136ZM41.435 28.216C40.787 28.216 40.191 28.104 39.647 27.88C39.103 27.648 38.635 27.332 38.243 26.932C37.859 26.532 37.555 26.06 37.331 25.516C37.115 24.972 37.007 24.384 37.007 23.752C37.007 23.12 37.115 22.532 37.331 21.988C37.555 21.444 37.859 20.972 38.243 20.572C38.635 20.172 39.103 19.86 39.647 19.636C40.191 19.404 40.787 19.288 41.435 19.288C42.083 19.288 42.679 19.404 43.223 19.636C43.767 19.86 44.231 20.172 44.615 20.572C45.007 20.972 45.311 21.444 45.527 21.988C45.751 22.532 45.863 23.12 45.863 23.752C45.863 24.384 45.751 24.972 45.527 25.516C45.311 26.06 45.007 26.532 44.615 26.932C44.231 27.332 43.767 27.648 43.223 27.88C42.679 28.104 42.083 28.216 41.435 28.216ZM41.435 27.136C41.923 27.136 42.363 27.048 42.755 26.872C43.147 26.688 43.483 26.444 43.763 26.14C44.043 25.836 44.259 25.48 44.411 25.072C44.563 24.656 44.639 24.216 44.639 23.752C44.639 23.288 44.563 22.852 44.411 22.444C44.259 22.028 44.043 21.668 43.763 21.364C43.483 21.06 43.147 20.82 42.755 20.644C42.363 20.46 41.923 20.368 41.435 20.368C40.947 20.368 40.507 20.46 40.115 20.644C39.723 20.82 39.387 21.06 39.107 21.364C38.827 21.668 38.611 22.028 38.459 22.444C38.307 22.852 38.231 23.288 38.231 23.752C38.231 24.216 38.307 24.656 38.459 25.072C38.611 25.48 38.827 25.836 39.107 26.14C39.387 26.444 39.723 26.688 40.115 26.872C40.507 27.048 40.947 27.136 41.435 27.136ZM48.7193 19.504H49.8713V23.176H49.9673L53.7233 19.504H55.3313L51.2273 23.428L55.6073 28H53.9273L49.9673 23.752H49.8713V28H48.7193V19.504ZM64.9044 19.504H65.9484L69.5844 28H68.2404L67.3884 25.9H63.3444L62.5044 28H61.1604L64.9044 19.504ZM66.9684 24.892L65.3844 20.992H65.3604L63.7524 24.892H66.9684ZM71.8897 19.504H73.4017L78.0817 26.488H78.1057V19.504H79.2577V28H77.7937L73.0657 21.016H73.0417V28H71.8897V19.504ZM89.8443 19.504H90.8883L94.5243 28H93.1803L92.3283 25.9H88.2843L87.4443 28H86.1003L89.8443 19.504ZM91.9083 24.892L90.3243 20.992H90.3003L88.6923 24.892H91.9083ZM96.8295 19.504H99.8175C100.362 19.504 100.81 19.58 101.162 19.732C101.514 19.876 101.79 20.064 101.99 20.296C102.198 20.52 102.342 20.776 102.422 21.064C102.502 21.344 102.542 21.616 102.542 21.88C102.542 22.144 102.502 22.42 102.422 22.708C102.342 22.988 102.198 23.244 101.99 23.476C101.79 23.7 101.514 23.888 101.162 24.04C100.81 24.184 100.362 24.256 99.8175 24.256H97.9815V28H96.8295V19.504ZM97.9815 23.248H99.4935C99.7175 23.248 99.9375 23.232 100.154 23.2C100.378 23.16 100.574 23.092 100.742 22.996C100.918 22.9 101.058 22.764 101.162 22.588C101.266 22.404 101.318 22.168 101.318 21.88C101.318 21.592 101.266 21.36 101.162 21.184C101.058 21 100.918 20.86 100.742 20.764C100.574 20.668 100.378 20.604 100.154 20.572C99.9375 20.532 99.7175 20.512 99.4935 20.512H97.9815V23.248ZM105.143 19.504H108.131C108.675 19.504 109.123 19.58 109.475 19.732C109.827 19.876 110.103 20.064 110.303 20.296C110.511 20.52 110.655 20.776 110.735 21.064C110.815 21.344 110.855 21.616 110.855 21.88C110.855 22.144 110.815 22.42 110.735 22.708C110.655 22.988 110.511 23.244 110.303 23.476C110.103 23.7 109.827 23.888 109.475 24.04C109.123 24.184 108.675 24.256 108.131 24.256H106.295V28H105.143V19.504ZM106.295 23.248H107.807C108.031 23.248 108.251 23.232 108.467 23.2C108.691 23.16 108.887 23.092 109.055 22.996C109.231 22.9 109.371 22.764 109.475 22.588C109.579 22.404 109.631 22.168 109.631 21.88C109.631 21.592 109.579 21.36 109.475 21.184C109.371 21 109.231 20.86 109.055 20.764C108.887 20.668 108.691 20.604 108.467 20.572C108.251 20.532 108.031 20.512 107.807 20.512H106.295V23.248ZM117.356 28.216C116.708 28.216 116.112 28.104 115.568 27.88C115.024 27.648 114.556 27.332 114.164 26.932C113.78 26.532 113.476 26.06 113.252 25.516C113.036 24.972 112.928 24.384 112.928 23.752C112.928 23.12 113.036 22.532 113.252 21.988C113.476 21.444 113.78 20.972 114.164 20.572C114.556 20.172 115.024 19.86 115.568 19.636C116.112 19.404 116.708 19.288 117.356 19.288C118.004 19.288 118.6 19.404 119.144 19.636C119.688 19.86 120.152 20.172 120.536 20.572C120.928 20.972 121.232 21.444 121.448 21.988C121.672 22.532 121.784 23.12 121.784 23.752C121.784 24.384 121.672 24.972 121.448 25.516C121.232 26.06 120.928 26.532 120.536 26.932C120.152 27.332 119.688 27.648 119.144 27.88C118.6 28.104 118.004 28.216 117.356 28.216ZM117.356 27.136C117.844 27.136 118.284 27.048 118.676 26.872C119.068 26.688 119.404 26.444 119.684 26.14C119.964 25.836 120.18 25.48 120.332 25.072C120.484 24.656 120.56 24.216 120.56 23.752C120.56 23.288 120.484 22.852 120.332 22.444C120.18 22.028 119.964 21.668 119.684 21.364C119.404 21.06 119.068 20.82 118.676 20.644C118.284 20.46 117.844 20.368 117.356 20.368C116.868 20.368 116.428 20.46 116.036 20.644C115.644 20.82 115.308 21.06 115.028 21.364C114.748 21.668 114.532 22.028 114.38 22.444C114.228 22.852 114.152 23.288 114.152 23.752C114.152 24.216 114.228 24.656 114.38 25.072C114.532 25.48 114.748 25.836 115.028 26.14C115.308 26.444 115.644 26.688 116.036 26.872C116.428 27.048 116.868 27.136 117.356 27.136ZM124.64 19.504H125.792V28H124.64V19.504ZM129.18 19.504H130.692L135.372 26.488H135.396V19.504H136.548V28H135.084L130.356 21.016H130.332V28H129.18V19.504ZM141.707 20.584H138.971V19.504H145.595V20.584H142.859V28H141.707V20.584ZM147.938 19.504H149.654L152.354 25.936H152.402L155.078 19.504H156.794V28H155.642V21.016H155.618L152.75 28H151.982L149.114 21.016H149.09V28H147.938V19.504ZM160.097 19.504H165.581V20.584H161.249V23.116H165.281V24.196H161.249V26.92H165.797V28H160.097V19.504ZM168.633 19.504H170.145L174.825 26.488H174.849V19.504H176.001V28H174.537L169.809 21.016H169.785V28H168.633V19.504ZM181.159 20.584H178.423V19.504H185.047V20.584H182.311V28H181.159V20.584Z" fill="white"/>
<defs>
<linearGradient id="paint0_linear_11623_567" x1="0" y1="24" x2="202" y2="24" gradientUnits="userSpaceOnUse">
<stop stop-color="#865C47"/>
<stop offset="1" stop-color="#80482B"/>
</linearGradient>
</defs>
</svg>
