<svg width="18" height="12" viewBox="0 0 18 12" fill="none" xmlns="http://www.w3.org/2000/svg">
<path d="M17.5303 6.53033C17.8232 6.23744 17.8232 5.76256 17.5303 5.46967L12.7574 0.6967C12.4645 0.403807 11.9896 0.403807 11.6967 0.6967C11.4038 0.989594 11.4038 1.46447 11.6967 1.75736L15.9393 6L11.6967 10.2426C11.4038 10.5355 11.4038 11.0104 11.6967 11.3033C11.9896 11.5962 12.4645 11.5962 12.7574 11.3033L17.5303 6.53033ZM-6.55671e-08 6.75L17 6.75L17 5.25L6.55671e-08 5.25L-6.55671e-08 6.75Z" fill="url(#paint0_linear_12345_853)"/>
<defs>
<linearGradient id="paint0_linear_12345_853" x1="-4.37114e-08" y1="6.5" x2="17" y2="6.5" gradientUnits="userSpaceOnUse">
<stop stop-color="#C0886C"/>
<stop offset="1" stop-color="#9E5B39"/>
</linearGradient>
</defs>
</svg>
