<svg id="Layer_4" data-name="Layer 4" xmlns="http://www.w3.org/2000/svg" viewBox="0 0 1000 1000"><path d="M239.9,475.15H212.17V454.9H293v20.25h-27.6v70H239.9Z"/><path d="M296.64,500c0-27.08,21.28-46.93,50.16-46.93S397,473,397,500,375.69,547,346.8,547,296.64,527.11,296.64,500Zm74.54,0c0-15.6-10.71-25.79-24.38-25.79S322.43,484.43,322.43,500s10.7,25.79,24.37,25.79S371.18,515.64,371.18,500Z"/><path d="M491.75,488.3c0,20.5-15.48,33.27-40.11,33.27H435.91v23.6H410.38V454.9h41.26C476.27,454.9,491.75,467.67,491.75,488.3Zm-25.79,0c0-8.38-5.29-13.28-15.86-13.28H435.91v26.43H450.1C460.67,501.45,466,496.55,466,488.3Z"/><path d="M507.19,455.11h36.75c28.89,0,48.36,18.57,48.36,45.14s-19.47,45.13-48.36,45.13H507.19Zm36.24,82c24,0,39.46-15.22,39.46-36.88s-15.48-36.88-39.46-36.88h-26.7v73.76Z"/><path d="M605.71,500.25c0-26.31,20.12-45.91,47.46-45.91,27.08,0,47.32,19.47,47.32,45.91s-20.24,45.9-47.32,45.9C625.83,546.15,605.71,526.55,605.71,500.25Zm85.24,0c0-21.54-16.12-37.4-37.78-37.4s-38,15.86-38,37.4,16.24,37.39,38,37.39S691,521.78,691,500.25Z"/><path d="M713.91,500.25c0-26.44,20.11-45.91,47.32-45.91,13.16,0,25,4.39,33,13.15l-6.06,6.07c-7.35-7.48-16.37-10.71-26.69-10.71-21.79,0-38.17,16-38.17,37.4s16.38,37.39,38.17,37.39c10.32,0,19.34-3.22,26.69-10.83l6.06,6.06c-8,8.77-19.85,13.28-33.14,13.28C734,546.15,713.91,526.68,713.91,500.25Z"/><path d="M340.5,592.49c0-17,13-29.58,30.49-29.58,8.47,0,16.12,2.82,21.27,8.47l-3.91,3.91c-4.73-4.82-10.55-6.9-17.19-6.9-14,0-24.6,10.3-24.6,24.1s10.56,24.09,24.6,24.09c6.64,0,12.46-2.08,17.19-7l3.91,3.9c-5.15,5.65-12.8,8.56-21.35,8.56C353.46,622.06,340.5,609.52,340.5,592.49Z"/><path d="M405.38,563.41h6.15v52.83h32.56v5.32H405.38Z"/><path d="M454.31,563.41h6.15v58.15h-6.15Z"/><path d="M528,563.41v58.15h-5.07l-37.38-47.19v47.19H479.4V563.41h5.07l37.46,47.19V563.41Z"/><path d="M546.94,563.41h6.15v58.15h-6.15Z"/><path d="M566.88,592.49c0-17,13-29.58,30.49-29.58,8.47,0,16.11,2.82,21.26,8.47l-3.9,3.91c-4.74-4.82-10.55-6.9-17.2-6.9-14,0-24.59,10.3-24.59,24.1s10.55,24.09,24.59,24.09c6.65,0,12.46-2.08,17.2-7l3.9,3.9c-5.15,5.65-12.79,8.56-21.35,8.56C579.84,622.06,566.88,609.52,566.88,592.49Z"/><path d="M625.86,614.5l2.41-4.73c4.15,4.07,11.55,7.06,19.19,7.06,10.88,0,15.62-4.57,15.62-10.3,0-16-35.81-6.15-35.81-27.67,0-8.56,6.65-16,21.44-16,6.56,0,13.37,1.91,18,5.15l-2.07,4.9a30,30,0,0,0-15.95-4.82c-10.64,0-15.37,4.74-15.37,10.55,0,16,35.8,6.32,35.8,27.5,0,8.56-6.81,15.87-21.68,15.87C638.74,622.06,630.18,619,625.86,614.5Z"/></svg>