<svg width="32" height="32" viewBox="0 0 32 32" fill="none" xmlns="http://www.w3.org/2000/svg">
<path d="M18.0003 29.1842C24.4154 28.2192 29.3337 22.6838 29.3337 15.9998C29.3337 8.63604 23.3641 2.6665 16.0003 2.6665C8.63653 2.6665 2.66699 8.63604 2.66699 15.9998C2.66699 22.6838 7.58531 28.2192 14.0003 29.1842V19.9998H12.0003C10.8958 19.9998 10.0003 19.1044 10.0003 17.9998C10.0003 16.8953 10.8958 15.9998 12.0003 15.9998H14.0003V13.3332C14.0003 10.7558 16.0897 8.6665 18.667 8.6665H19.3337C20.4382 8.6665 21.3337 9.56193 21.3337 10.6665C21.3337 11.7711 20.4382 12.6665 19.3337 12.6665H18.667C18.2989 12.6665 18.0003 12.965 18.0003 13.3332V15.9998H20.0003C21.1049 15.9998 22.0003 16.8953 22.0003 17.9998C22.0003 19.1044 21.1049 19.9998 20.0003 19.9998H18.0003V29.1842Z" 
fill="#583726"/>
<defs>
<linearGradient id="paint0_linear_12276_810" x1="2.66699" y1="15.9254" x2="29.3337" y2="15.9254" gradientUnits="userSpaceOnUse">
<stop stop-color="#C0886C"/>
<stop offset="1" stop-color="#9E5B39"/>
</linearGradient>
</defs>
</svg>