<svg width="32" height="32" viewBox="0 0 32 32" fill="none" xmlns="http://www.w3.org/2000/svg">
<path d="M21.3333 4C25.0152 4 28 6.98477 28 10.6667V21.3333C28 25.0152 25.0152 28 21.3333 28H10.6667C6.98477 28 4 25.0152 4 21.3333L4 10.6667C4 6.98477 6.98477 4 10.6667 4L21.3333 4ZM16 10.6667C13.0545 10.6667 10.6667 13.0545 10.6667 16C10.6667 18.9455 13.0545 21.3333 16 21.3333C18.9455 21.3333 21.3333 18.9455 21.3333 16C21.3333 13.0545 18.9455 10.6667 16 10.6667ZM16 13.3333C17.4728 13.3333 18.6667 14.5272 18.6667 16C18.6667 17.4728 17.4728 18.6667 16 18.6667C14.5272 18.6667 13.3333 17.4728 13.3333 16C13.3333 14.5272 14.5272 13.3333 16 13.3333ZM22 8.66667C21.2636 8.66667 20.6667 9.26363 20.6667 10C20.6667 10.7364 21.2636 11.3333 22 11.3333C22.7364 11.3333 23.3333 10.7364 23.3333 10C23.3333 9.26363 22.7364 8.66667 22 8.66667Z" 
fill="#583726"/>
<defs>
<linearGradient id="paint0_linear_11650_5971" x1="4" y1="16" x2="28" y2="16" gradientUnits="userSpaceOnUse">
<stop stop-color="#C0886C"/>
<stop offset="1" stop-color="#9E5B39"/>
</linearGradient>
</defs>
</svg>