<svg width="32" height="32" viewBox="0 0 32 32" fill="none" xmlns="http://www.w3.org/2000/svg">
<path fill-rule="evenodd" clip-rule="evenodd" d="M24 4C26.2092 4 28 5.79087 28 8V24C28 26.2092 26.2092 28 24 28H8C5.79087 28 4 26.2092 4 24V8C4 5.79087 5.79087 4 8 4H24ZM10.6667 13.3333C9.93029 13.3333 9.33333 13.9303 9.33333 14.6667V21.3333C9.33333 22.0697 9.93029 22.6667 10.6667 22.6667C11.403 22.6667 12 22.0697 12 21.3333V14.6667C12 13.9303 11.403 13.3333 10.6667 13.3333ZM14.6667 12C13.9303 12 13.3333 12.597 13.3333 13.3333V21.3333C13.3333 22.0697 13.9303 22.6667 14.6667 22.6667C15.4031 22.6667 16 22.0697 16 21.3333V16.4531C16.4065 15.994 17.0943 15.4561 17.8577 15.1296C18.3015 14.9397 18.9691 14.8639 19.4335 15.0099C19.6365 15.0737 19.7524 15.1635 19.824 15.2601C19.8935 15.3543 20 15.5609 20 16V21.3333C20 22.0696 20.5969 22.6667 21.3333 22.6667C22.0697 22.6667 22.6667 22.0696 22.6667 21.3333V16C22.6667 15.1056 22.4397 14.3123 21.9677 13.6741C21.4976 13.0388 20.8635 12.6641 20.2332 12.466C19.0309 12.0879 17.6985 12.2973 16.8089 12.6778C16.5267 12.7986 16.2484 12.9391 15.9788 13.095C15.8664 12.4724 15.3217 12 14.6667 12ZM10.6667 9.33333C9.93029 9.33333 9.33333 9.93029 9.33333 10.6667C9.33333 11.403 9.93029 12 10.6667 12C11.403 12 12 11.403 12 10.6667C12 9.93029 11.403 9.33333 10.6667 9.33333Z" 
fill="#583726"/>
<defs>
<linearGradient id="paint0_linear_12288_827" x1="4" y1="16" x2="28" y2="16" gradientUnits="userSpaceOnUse">
<stop stop-color="#C0886C"/>
<stop offset="1" stop-color="#9E5B39"/>
</linearGradient>
</defs>
</svg>