<svg width="54" height="20" viewBox="0 0 54 20" fill="none" xmlns="http://www.w3.org/2000/svg">
<path d="M52.9275 10.9275C53.4398 10.4153 53.4398 9.58474 52.9275 9.07248L44.5798 0.724799C44.0676 0.212544 43.237 0.212543 42.7248 0.724799C42.2125 1.23705 42.2125 2.06758 42.7248 2.57984L50.145 10L42.7248 17.4202C42.2125 17.9324 42.2125 18.763 42.7248 19.2752C43.237 19.7875 44.0676 19.7875 44.5798 19.2752L52.9275 10.9275ZM-1.14674e-07 11.3117L52 11.3117L52 8.68829L1.14674e-07 8.68829L-1.14674e-07 11.3117Z" fill="url(#paint0_linear_11613_396)"/>
<defs>
<linearGradient id="paint0_linear_11613_396" x1="-4.37114e-08" y1="10.5" x2="52" y2="10.5" gradientUnits="userSpaceOnUse">
<stop stop-color="#C0886C"/>
<stop offset="1" stop-color="#9E5B39"/>
</linearGradient>
</defs>
</svg>
