<svg width="21" height="20" viewBox="0 0 21 20" fill="none" xmlns="http://www.w3.org/2000/svg">
<g clip-path="url(#clip0_11771_3490)">
<path fill-rule="evenodd" clip-rule="evenodd" d="M18 0H3C2.33696 0 1.70107 0.263392 1.23223 0.732233C0.763392 1.20107 0.5 1.83696 0.5 2.5L0.5 17.5C0.5 18.163 0.763392 18.7989 1.23223 19.2678C1.70107 19.7366 2.33696 20 3 20H18C18.663 20 19.2989 19.7366 19.7678 19.2678C20.2366 18.7989 20.5 18.163 20.5 17.5V2.5C20.5 1.83696 20.2366 1.20107 19.7678 0.732233C19.2989 0.263392 18.663 0 18 0V0ZM1.75 4.82125C1.75 4.23 2.31 3.75 3 3.75H18C18.69 3.75 19.25 4.23 19.25 4.82125V17.6787C19.25 18.27 18.69 18.75 18 18.75H3C2.31 18.75 1.75 18.27 1.75 17.6787V4.82125Z" fill="white"/>
<path fill-rule="evenodd" clip-rule="evenodd" d="M8.625 8.75C8.95652 8.75 9.27446 8.6183 9.50888 8.38388C9.7433 8.14946 9.875 7.83152 9.875 7.5C9.875 7.16848 9.7433 6.85054 9.50888 6.61612C9.27446 6.3817 8.95652 6.25 8.625 6.25C8.29348 6.25 7.97554 6.3817 7.74112 6.61612C7.5067 6.85054 7.375 7.16848 7.375 7.5C7.375 7.83152 7.5067 8.14946 7.74112 8.38388C7.97554 8.6183 8.29348 8.75 8.625 8.75ZM12.375 8.75C12.7065 8.75 13.0245 8.6183 13.2589 8.38388C13.4933 8.14946 13.625 7.83152 13.625 7.5C13.625 7.16848 13.4933 6.85054 13.2589 6.61612C13.0245 6.3817 12.7065 6.25 12.375 6.25C12.0435 6.25 11.7255 6.3817 11.4911 6.61612C11.2567 6.85054 11.125 7.16848 11.125 7.5C11.125 7.83152 11.2567 8.14946 11.4911 8.38388C11.7255 8.6183 12.0435 8.75 12.375 8.75ZM16.125 8.75C16.4565 8.75 16.7745 8.6183 17.0089 8.38388C17.2433 8.14946 17.375 7.83152 17.375 7.5C17.375 7.16848 17.2433 6.85054 17.0089 6.61612C16.7745 6.3817 16.4565 6.25 16.125 6.25C15.7935 6.25 15.4755 6.3817 15.2411 6.61612C15.0067 6.85054 14.875 7.16848 14.875 7.5C14.875 7.83152 15.0067 8.14946 15.2411 8.38388C15.4755 8.6183 15.7935 8.75 16.125 8.75ZM4.875 12.5C5.20652 12.5 5.52446 12.3683 5.75888 12.1339C5.9933 11.8995 6.125 11.5815 6.125 11.25C6.125 10.9185 5.9933 10.6005 5.75888 10.3661C5.52446 10.1317 5.20652 10 4.875 10C4.54348 10 4.22554 10.1317 3.99112 10.3661C3.7567 10.6005 3.625 10.9185 3.625 11.25C3.625 11.5815 3.7567 11.8995 3.99112 12.1339C4.22554 12.3683 4.54348 12.5 4.875 12.5ZM8.625 12.5C8.95652 12.5 9.27446 12.3683 9.50888 12.1339C9.7433 11.8995 9.875 11.5815 9.875 11.25C9.875 10.9185 9.7433 10.6005 9.50888 10.3661C9.27446 10.1317 8.95652 10 8.625 10C8.29348 10 7.97554 10.1317 7.74112 10.3661C7.5067 10.6005 7.375 10.9185 7.375 11.25C7.375 11.5815 7.5067 11.8995 7.74112 12.1339C7.97554 12.3683 8.29348 12.5 8.625 12.5ZM12.375 12.5C12.7065 12.5 13.0245 12.3683 13.2589 12.1339C13.4933 11.8995 13.625 11.5815 13.625 11.25C13.625 10.9185 13.4933 10.6005 13.2589 10.3661C13.0245 10.1317 12.7065 10 12.375 10C12.0435 10 11.7255 10.1317 11.4911 10.3661C11.2567 10.6005 11.125 10.9185 11.125 11.25C11.125 11.5815 11.2567 11.8995 11.4911 12.1339C11.7255 12.3683 12.0435 12.5 12.375 12.5ZM16.125 12.5C16.4565 12.5 16.7745 12.3683 17.0089 12.1339C17.2433 11.8995 17.375 11.5815 17.375 11.25C17.375 10.9185 17.2433 10.6005 17.0089 10.3661C16.7745 10.1317 16.4565 10 16.125 10C15.7935 10 15.4755 10.1317 15.2411 10.3661C15.0067 10.6005 14.875 10.9185 14.875 11.25C14.875 11.5815 15.0067 11.8995 15.2411 12.1339C15.4755 12.3683 15.7935 12.5 16.125 12.5ZM4.875 16.25C5.20652 16.25 5.52446 16.1183 5.75888 15.8839C5.9933 15.6495 6.125 15.3315 6.125 15C6.125 14.6685 5.9933 14.3505 5.75888 14.1161C5.52446 13.8817 5.20652 13.75 4.875 13.75C4.54348 13.75 4.22554 13.8817 3.99112 14.1161C3.7567 14.3505 3.625 14.6685 3.625 15C3.625 15.3315 3.7567 15.6495 3.99112 15.8839C4.22554 16.1183 4.54348 16.25 4.875 16.25ZM8.625 16.25C8.95652 16.25 9.27446 16.1183 9.50888 15.8839C9.7433 15.6495 9.875 15.3315 9.875 15C9.875 14.6685 9.7433 14.3505 9.50888 14.1161C9.27446 13.8817 8.95652 13.75 8.625 13.75C8.29348 13.75 7.97554 13.8817 7.74112 14.1161C7.5067 14.3505 7.375 14.6685 7.375 15C7.375 15.3315 7.5067 15.6495 7.74112 15.8839C7.97554 16.1183 8.29348 16.25 8.625 16.25ZM12.375 16.25C12.7065 16.25 13.0245 16.1183 13.2589 15.8839C13.4933 15.6495 13.625 15.3315 13.625 15C13.625 14.6685 13.4933 14.3505 13.2589 14.1161C13.0245 13.8817 12.7065 13.75 12.375 13.75C12.0435 13.75 11.7255 13.8817 11.4911 14.1161C11.2567 14.3505 11.125 14.6685 11.125 15C11.125 15.3315 11.2567 15.6495 11.4911 15.8839C11.7255 16.1183 12.0435 16.25 12.375 16.25Z" fill="white"/>
</g>
<defs>
<clipPath id="clip0_11771_3490">
<rect width="20" height="20" fill="white" transform="translate(0.5)"/>
</clipPath>
</defs>
</svg>
