<svg width="21" height="20" viewBox="0 0 21 20" fill="none" xmlns="http://www.w3.org/2000/svg">
<g clip-path="url(#clip0_11771_3605)">
<path fill-rule="evenodd" clip-rule="evenodd" d="M10.5 20C10.5 20 18 12.8925 18 7.5C18 5.51088 17.2098 3.60322 15.8033 2.1967C14.3968 0.790176 12.4891 0 10.5 0C8.51088 0 6.60322 0.790176 5.1967 2.1967C3.79018 3.60322 3 5.51088 3 7.5C3 12.8925 10.5 20 10.5 20ZM10.5 11.25C11.4946 11.25 12.4484 10.8549 13.1517 10.1517C13.8549 9.44839 14.25 8.49456 14.25 7.5C14.25 6.50544 13.8549 5.55161 13.1517 4.84835C12.4484 4.14509 11.4946 3.75 10.5 3.75C9.50544 3.75 8.55161 4.14509 7.84835 4.84835C7.14509 5.55161 6.75 6.50544 6.75 7.5C6.75 8.49456 7.14509 9.44839 7.84835 10.1517C8.55161 10.8549 9.50544 11.25 10.5 11.25Z" fill="white"/>
</g>
<defs>
<clipPath id="clip0_11771_3605">
<rect width="20" height="20" fill="white" transform="translate(0.5)"/>
</clipPath>
</defs>
</svg>
