<svg width="21" height="20" viewBox="0 0 21 20" fill="none" xmlns="http://www.w3.org/2000/svg">
<g clip-path="url(#clip0_11771_3487)">
<path fill-rule="evenodd" clip-rule="evenodd" d="M14.25 1.25H6.75C6.41848 1.25 6.10054 1.3817 5.86612 1.61612C5.6317 1.85054 5.5 2.16848 5.5 2.5V17.5C5.5 17.8315 5.6317 18.1495 5.86612 18.3839C6.10054 18.6183 6.41848 18.75 6.75 18.75H14.25C14.5815 18.75 14.8995 18.6183 15.1339 18.3839C15.3683 18.1495 15.5 17.8315 15.5 17.5V2.5C15.5 2.16848 15.3683 1.85054 15.1339 1.61612C14.8995 1.3817 14.5815 1.25 14.25 1.25ZM6.75 0C6.08696 0 5.45107 0.263392 4.98223 0.732233C4.51339 1.20107 4.25 1.83696 4.25 2.5V17.5C4.25 18.163 4.51339 18.7989 4.98223 19.2678C5.45107 19.7366 6.08696 20 6.75 20H14.25C14.913 20 15.5489 19.7366 16.0178 19.2678C16.4866 18.7989 16.75 18.163 16.75 17.5V2.5C16.75 1.83696 16.4866 1.20107 16.0178 0.732233C15.5489 0.263392 14.913 0 14.25 0L6.75 0Z" fill="white"/>
<path fill-rule="evenodd" clip-rule="evenodd" d="M10.5 17.5C10.8315 17.5 11.1495 17.3683 11.3839 17.1339C11.6183 16.8995 11.75 16.5815 11.75 16.25C11.75 15.9185 11.6183 15.6005 11.3839 15.3661C11.1495 15.1317 10.8315 15 10.5 15C10.1685 15 9.85054 15.1317 9.61612 15.3661C9.3817 15.6005 9.25 15.9185 9.25 16.25C9.25 16.5815 9.3817 16.8995 9.61612 17.1339C9.85054 17.3683 10.1685 17.5 10.5 17.5Z" fill="white"/>
</g>
<defs>
<clipPath id="clip0_11771_3487">
<rect width="20" height="20" fill="white" transform="translate(0.5)"/>
</clipPath>
</defs>
</svg>
