<svg 
  width="13" 
  height="8" 
  viewBox="0 0 13 8" 
  fill="none" 
  xmlns="http://www.w3.org/2000/svg">
<path 
fill-rule="evenodd" 
clip-rule="evenodd" 
id="qqq"
d="M0.940056 1.06527C0.980696 1.02453 1.02897 0.992201 1.08213 0.970145C1.13528 0.94809 1.19226 0.936737 1.24981 0.936737C1.30735 0.936737 1.36433 0.94809 1.41748 0.970145C1.47064 0.992201 1.51892 1.02453 1.55956 1.06527L6.49981 6.00639L11.4401 1.06527C11.4807 1.02459 11.529 0.992325 11.5822 0.970311C11.6353 0.948297 11.6923 0.936966 11.7498 0.936966C11.8073 0.936966 11.8643 0.948297 11.9174 0.970311C11.9706 0.992325 12.0189 1.02459 12.0596 1.06527C12.1002 1.10595 12.1325 1.15424 12.1545 1.20738C12.1765 1.26053 12.1879 1.31749 12.1879 1.37502C12.1879 1.43254 12.1765 1.48951 12.1545 1.54265C12.1325 1.5958 12.1002 1.64409 12.0596 1.68477L6.80956 6.93477C6.76892 6.97551 6.72064 7.00784 6.66748 7.02989C6.61433 7.05195 6.55735 7.0633 6.49981 7.0633C6.44226 7.0633 6.38528 7.05195 6.33213 7.02989C6.27897 7.00784 6.2307 6.97551 6.19006 6.93477L0.940056 1.68477C0.899313 1.64413 0.866988 1.59585 0.844932 1.5427C0.822876 1.48955 0.811523 1.43257 0.811523 1.37502C0.811523 1.31747 0.822876 1.26049 0.844932 1.20734C0.866988 1.15419 0.899313 1.10591 0.940056 1.06527Z" 
fill="white"
/>
</svg>
